<svg xmlns="http://www.w3.org/2000/svg" xmlns:xlink="http://www.w3.org/1999/xlink" width= "640" height="480" viewBox="0 0 640 480">
<line x1="79.99999999999999" y1="128.03847577293368" x2="91.99999999999999" y2="128.03847577293368" stroke-width="1" stroke-dasharray="None" stroke="rgb(0, 0, 0)"/>
<line x1="79.99999999999999" y1="128.03847577293368" x2="79.99999999999999" y2="248.03847577293368" stroke-width="1" stroke-dasharray="1" stroke="rgb(0, 0, 0)"/>
<line x1="91.99999999999999" y1="128.03847577293368" x2="91.99999999999999" y2="248.03847577293368" stroke-width="1" stroke-dasharray="None" stroke="rgb(0, 0, 0)"/>
<line x1="79.99999999999999" y1="248.03847577293368" x2="91.99999999999999" y2="248.03847577293368" stroke-width="1" stroke-dasharray="1" stroke="rgb(0, 0, 0)"/>
<line x1="79.99999999999999" y1="128.03847577293368" x2="20.000000000000014" y2="231.96152422706632" stroke-width="1" stroke-dasharray="None" stroke="rgb(0, 0, 0)"/>
<line x1="91.99999999999999" y1="128.03847577293368" x2="32.000000000000014" y2="231.96152422706632" stroke-width="1" stroke-dasharray="None" stroke="rgb(0, 0, 0)"/>
<line x1="20.000000000000014" y1="231.96152422706632" x2="32.000000000000014" y2="231.96152422706632" stroke-width="1" stroke-dasharray="None" stroke="rgb(0, 0, 0)"/>
<line x1="20.000000000000014" y1="231.96152422706632" x2="20.000000000000014" y2="351.9615242270663" stroke-width="1" stroke-dasharray="None" stroke="rgb(0, 0, 0)"/>
<line x1="32.000000000000014" y1="231.96152422706632" x2="32.000000000000014" y2="351.9615242270663" stroke-width="1" stroke-dasharray="None" stroke="rgb(0, 0, 0)"/>
<line x1="20.000000000000014" y1="351.9615242270663" x2="32.000000000000014" y2="351.9615242270663" stroke-width="1" stroke-dasharray="None" stroke="rgb(0, 0, 0)"/>
<line x1="79.99999999999999" y1="248.03847577293368" x2="20.000000000000014" y2="351.9615242270663" stroke-width="1" stroke-dasharray="1" stroke="rgb(0, 0, 0)"/>
<line x1="91.99999999999999" y1="248.03847577293368" x2="32.000000000000014" y2="351.9615242270663" stroke-width="1" stroke-dasharray="None" stroke="rgb(0, 0, 0)"/>
<text x="85.99999999999999" y="125.03847577293368" font-family="arial" font-size="10px" text-anchor="middle" fill="rgb(0, 0, 0)">12x120x120</text>
<line x1="51.5" y1="234.40192378864668" x2="63.5" y2="234.40192378864668" stroke-width="1" stroke-dasharray="None" stroke="rgb(0, 0, 255)"/>
<line x1="51.5" y1="234.40192378864668" x2="51.5" y2="240.40192378864668" stroke-width="1" stroke-dasharray="1" stroke="rgb(0, 0, 255)"/>
<line x1="63.5" y1="234.40192378864668" x2="63.5" y2="240.40192378864668" stroke-width="1" stroke-dasharray="None" stroke="rgb(0, 0, 255)"/>
<line x1="51.5" y1="240.40192378864668" x2="63.5" y2="240.40192378864668" stroke-width="1" stroke-dasharray="1" stroke="rgb(0, 0, 255)"/>
<line x1="51.5" y1="234.40192378864668" x2="48.5" y2="239.59807621135332" stroke-width="1" stroke-dasharray="None" stroke="rgb(0, 0, 255)"/>
<line x1="63.5" y1="234.40192378864668" x2="60.5" y2="239.59807621135332" stroke-width="1" stroke-dasharray="None" stroke="rgb(0, 0, 255)"/>
<line x1="48.5" y1="239.59807621135332" x2="60.5" y2="239.59807621135332" stroke-width="1" stroke-dasharray="None" stroke="rgb(0, 0, 255)"/>
<line x1="48.5" y1="239.59807621135332" x2="48.5" y2="245.59807621135332" stroke-width="1" stroke-dasharray="None" stroke="rgb(0, 0, 255)"/>
<line x1="60.5" y1="239.59807621135332" x2="60.5" y2="245.59807621135332" stroke-width="1" stroke-dasharray="None" stroke="rgb(0, 0, 255)"/>
<line x1="48.5" y1="245.59807621135332" x2="60.5" y2="245.59807621135332" stroke-width="1" stroke-dasharray="None" stroke="rgb(0, 0, 255)"/>
<line x1="51.5" y1="240.40192378864668" x2="48.5" y2="245.59807621135332" stroke-width="1" stroke-dasharray="1" stroke="rgb(0, 0, 255)"/>
<line x1="63.5" y1="240.40192378864668" x2="60.5" y2="245.59807621135332" stroke-width="1" stroke-dasharray="None" stroke="rgb(0, 0, 255)"/>
<line x1="63.5" y1="234.40192378864668" x2="98.24999999999997" y2="212.94263164512563" stroke-width="1" stroke-dasharray="1" stroke="rgb(0, 0, 255)"/>
<line x1="63.5" y1="240.40192378864668" x2="98.24999999999997" y2="212.94263164512563" stroke-width="1" stroke-dasharray="1" stroke="rgb(0, 0, 255)"/>
<line x1="60.5" y1="239.59807621135332" x2="98.24999999999997" y2="212.94263164512563" stroke-width="1" stroke-dasharray="1" stroke="rgb(0, 0, 255)"/>
<line x1="60.5" y1="245.59807621135332" x2="98.24999999999997" y2="212.94263164512563" stroke-width="1" stroke-dasharray="1" stroke="rgb(0, 0, 255)"/>
<text x="20.000000000000014" y="361.9615242270663" font-family="arial" font-size="12px" text-anchor="left" fill="rgb(0, 0, 0)">conv2d</text>
<text x="20.000000000000014" y="373.9615242270663" font-family="arial" font-size="12px" text-anchor="left" fill="rgb(0, 0, 0)">kernel:(6, 6)</text>
<text x="20.000000000000014" y="385.9615242270663" font-family="arial" font-size="12px" text-anchor="left" fill="rgb(0, 0, 0)">stride:(2, 2)</text>
<text x="20.000000000000014" y="397.9615242270663" font-family="arial" font-size="12px" text-anchor="left" fill="rgb(0, 0, 0)">pad:(0, 0)</text>
<line x1="105.49999999999997" y1="185.88526329025126" x2="169.49999999999997" y2="185.88526329025126" stroke-width="1" stroke-dasharray="None" stroke="rgb(0, 0, 0)"/>
<line x1="105.49999999999997" y1="185.88526329025126" x2="105.49999999999997" y2="243.88526329025126" stroke-width="1" stroke-dasharray="1" stroke="rgb(0, 0, 0)"/>
<line x1="169.49999999999997" y1="185.88526329025126" x2="169.49999999999997" y2="243.88526329025126" stroke-width="1" stroke-dasharray="None" stroke="rgb(0, 0, 0)"/>
<line x1="105.49999999999997" y1="243.88526329025126" x2="169.49999999999997" y2="243.88526329025126" stroke-width="1" stroke-dasharray="1" stroke="rgb(0, 0, 0)"/>
<line x1="105.49999999999997" y1="185.88526329025126" x2="76.49999999999999" y2="236.1147367097487" stroke-width="1" stroke-dasharray="None" stroke="rgb(0, 0, 0)"/>
<line x1="169.49999999999997" y1="185.88526329025126" x2="140.5" y2="236.1147367097487" stroke-width="1" stroke-dasharray="None" stroke="rgb(0, 0, 0)"/>
<line x1="76.49999999999999" y1="236.1147367097487" x2="140.5" y2="236.1147367097487" stroke-width="1" stroke-dasharray="None" stroke="rgb(0, 0, 0)"/>
<line x1="76.49999999999999" y1="236.1147367097487" x2="76.49999999999999" y2="294.11473670974874" stroke-width="1" stroke-dasharray="None" stroke="rgb(0, 0, 0)"/>
<line x1="140.5" y1="236.1147367097487" x2="140.5" y2="294.11473670974874" stroke-width="1" stroke-dasharray="None" stroke="rgb(0, 0, 0)"/>
<line x1="76.49999999999999" y1="294.11473670974874" x2="140.5" y2="294.11473670974874" stroke-width="1" stroke-dasharray="None" stroke="rgb(0, 0, 0)"/>
<line x1="105.49999999999997" y1="243.88526329025126" x2="76.49999999999999" y2="294.11473670974874" stroke-width="1" stroke-dasharray="1" stroke="rgb(0, 0, 0)"/>
<line x1="169.49999999999997" y1="243.88526329025126" x2="140.5" y2="294.11473670974874" stroke-width="1" stroke-dasharray="None" stroke="rgb(0, 0, 0)"/>
<text x="137.49999999999997" y="182.88526329025126" font-family="arial" font-size="10px" text-anchor="middle" fill="rgb(0, 0, 0)">64x58x58</text>
<line x1="91.99999999999999" y1="236.26794919243113" x2="156.0" y2="236.26794919243113" stroke-width="1" stroke-dasharray="None" stroke="rgb(0, 0, 255)"/>
<line x1="91.99999999999999" y1="236.26794919243113" x2="91.99999999999999" y2="240.26794919243113" stroke-width="1" stroke-dasharray="1" stroke="rgb(0, 0, 255)"/>
<line x1="156.0" y1="236.26794919243113" x2="156.0" y2="240.26794919243113" stroke-width="1" stroke-dasharray="None" stroke="rgb(0, 0, 255)"/>
<line x1="91.99999999999999" y1="240.26794919243113" x2="156.0" y2="240.26794919243113" stroke-width="1" stroke-dasharray="1" stroke="rgb(0, 0, 255)"/>
<line x1="91.99999999999999" y1="236.26794919243113" x2="89.99999999999999" y2="239.7320508075689" stroke-width="1" stroke-dasharray="None" stroke="rgb(0, 0, 255)"/>
<line x1="156.0" y1="236.26794919243113" x2="154.0" y2="239.7320508075689" stroke-width="1" stroke-dasharray="None" stroke="rgb(0, 0, 255)"/>
<line x1="89.99999999999999" y1="239.7320508075689" x2="154.0" y2="239.7320508075689" stroke-width="1" stroke-dasharray="None" stroke="rgb(0, 0, 255)"/>
<line x1="89.99999999999999" y1="239.7320508075689" x2="89.99999999999999" y2="243.7320508075689" stroke-width="1" stroke-dasharray="None" stroke="rgb(0, 0, 255)"/>
<line x1="154.0" y1="239.7320508075689" x2="154.0" y2="243.7320508075689" stroke-width="1" stroke-dasharray="None" stroke="rgb(0, 0, 255)"/>
<line x1="89.99999999999999" y1="243.7320508075689" x2="154.0" y2="243.7320508075689" stroke-width="1" stroke-dasharray="None" stroke="rgb(0, 0, 255)"/>
<line x1="91.99999999999999" y1="240.26794919243113" x2="89.99999999999999" y2="243.7320508075689" stroke-width="1" stroke-dasharray="1" stroke="rgb(0, 0, 255)"/>
<line x1="156.0" y1="240.26794919243113" x2="154.0" y2="243.7320508075689" stroke-width="1" stroke-dasharray="None" stroke="rgb(0, 0, 255)"/>
<line x1="156.0" y1="236.26794919243113" x2="172.5" y2="226.93782217350895" stroke-width="1" stroke-dasharray="1" stroke="rgb(0, 0, 255)"/>
<line x1="156.0" y1="240.26794919243113" x2="172.5" y2="226.93782217350895" stroke-width="1" stroke-dasharray="1" stroke="rgb(0, 0, 255)"/>
<line x1="154.0" y1="239.7320508075689" x2="172.5" y2="226.93782217350895" stroke-width="1" stroke-dasharray="1" stroke="rgb(0, 0, 255)"/>
<line x1="154.0" y1="243.7320508075689" x2="172.5" y2="226.93782217350895" stroke-width="1" stroke-dasharray="1" stroke="rgb(0, 0, 255)"/>
<text x="76.49999999999999" y="304.11473670974874" font-family="arial" font-size="12px" text-anchor="left" fill="rgb(0, 0, 0)">conv2d</text>
<text x="76.49999999999999" y="316.11473670974874" font-family="arial" font-size="12px" text-anchor="left" fill="rgb(0, 0, 0)">kernel:(4, 4)</text>
<text x="76.49999999999999" y="328.11473670974874" font-family="arial" font-size="12px" text-anchor="left" fill="rgb(0, 0, 0)">stride:(2, 2)</text>
<text x="76.49999999999999" y="340.11473670974874" font-family="arial" font-size="12px" text-anchor="left" fill="rgb(0, 0, 0)">pad:(0, 0)</text>
<line x1="176.0" y1="213.87564434701787" x2="304.0" y2="213.87564434701787" stroke-width="1" stroke-dasharray="None" stroke="rgb(0, 0, 0)"/>
<line x1="176.0" y1="213.87564434701787" x2="176.0" y2="241.87564434701787" stroke-width="1" stroke-dasharray="1" stroke="rgb(0, 0, 0)"/>
<line x1="304.0" y1="213.87564434701787" x2="304.0" y2="241.87564434701787" stroke-width="1" stroke-dasharray="None" stroke="rgb(0, 0, 0)"/>
<line x1="176.0" y1="241.87564434701787" x2="304.0" y2="241.87564434701787" stroke-width="1" stroke-dasharray="1" stroke="rgb(0, 0, 0)"/>
<line x1="176.0" y1="213.87564434701787" x2="162.0" y2="238.12435565298216" stroke-width="1" stroke-dasharray="None" stroke="rgb(0, 0, 0)"/>
<line x1="304.0" y1="213.87564434701787" x2="290.0" y2="238.12435565298216" stroke-width="1" stroke-dasharray="None" stroke="rgb(0, 0, 0)"/>
<line x1="162.0" y1="238.12435565298216" x2="290.0" y2="238.12435565298216" stroke-width="1" stroke-dasharray="None" stroke="rgb(0, 0, 0)"/>
<line x1="162.0" y1="238.12435565298216" x2="162.0" y2="266.12435565298216" stroke-width="1" stroke-dasharray="None" stroke="rgb(0, 0, 0)"/>
<line x1="290.0" y1="238.12435565298216" x2="290.0" y2="266.12435565298216" stroke-width="1" stroke-dasharray="None" stroke="rgb(0, 0, 0)"/>
<line x1="162.0" y1="266.12435565298216" x2="290.0" y2="266.12435565298216" stroke-width="1" stroke-dasharray="None" stroke="rgb(0, 0, 0)"/>
<line x1="176.0" y1="241.87564434701787" x2="162.0" y2="266.12435565298216" stroke-width="1" stroke-dasharray="1" stroke="rgb(0, 0, 0)"/>
<line x1="304.0" y1="241.87564434701787" x2="290.0" y2="266.12435565298216" stroke-width="1" stroke-dasharray="None" stroke="rgb(0, 0, 0)"/>
<text x="240.0" y="210.87564434701787" font-family="arial" font-size="10px" text-anchor="middle" fill="rgb(0, 0, 0)">128x28x28</text>
<rect x="317.0" y="190.0" width="5" height="100" stroke-width="1" stroke-dasharray="None" stroke="rgb(0, 0, 0)" fill="transparent"/><text x="319.5" y="187.0" font-family="arial" font-size="10px" text-anchor="middle" fill="rgb(0, 0, 0)">100352</text>
<line x1="343.0" y1="213.87564434701787" x2="471.0" y2="213.87564434701787" stroke-width="1" stroke-dasharray="None" stroke="rgb(0, 0, 0)"/>
<line x1="343.0" y1="213.87564434701787" x2="343.0" y2="241.87564434701787" stroke-width="1" stroke-dasharray="1" stroke="rgb(0, 0, 0)"/>
<line x1="471.0" y1="213.87564434701787" x2="471.0" y2="241.87564434701787" stroke-width="1" stroke-dasharray="None" stroke="rgb(0, 0, 0)"/>
<line x1="343.0" y1="241.87564434701787" x2="471.0" y2="241.87564434701787" stroke-width="1" stroke-dasharray="1" stroke="rgb(0, 0, 0)"/>
<line x1="343.0" y1="213.87564434701787" x2="329.0" y2="238.12435565298216" stroke-width="1" stroke-dasharray="None" stroke="rgb(0, 0, 0)"/>
<line x1="471.0" y1="213.87564434701787" x2="457.0" y2="238.12435565298216" stroke-width="1" stroke-dasharray="None" stroke="rgb(0, 0, 0)"/>
<line x1="329.0" y1="238.12435565298216" x2="457.0" y2="238.12435565298216" stroke-width="1" stroke-dasharray="None" stroke="rgb(0, 0, 0)"/>
<line x1="329.0" y1="238.12435565298216" x2="329.0" y2="266.12435565298216" stroke-width="1" stroke-dasharray="None" stroke="rgb(0, 0, 0)"/>
<line x1="457.0" y1="238.12435565298216" x2="457.0" y2="266.12435565298216" stroke-width="1" stroke-dasharray="None" stroke="rgb(0, 0, 0)"/>
<line x1="329.0" y1="266.12435565298216" x2="457.0" y2="266.12435565298216" stroke-width="1" stroke-dasharray="None" stroke="rgb(0, 0, 0)"/>
<line x1="343.0" y1="241.87564434701787" x2="329.0" y2="266.12435565298216" stroke-width="1" stroke-dasharray="1" stroke="rgb(0, 0, 0)"/>
<line x1="471.0" y1="241.87564434701787" x2="457.0" y2="266.12435565298216" stroke-width="1" stroke-dasharray="None" stroke="rgb(0, 0, 0)"/>
<text x="407.0" y="210.87564434701787" font-family="arial" font-size="10px" text-anchor="middle" fill="rgb(0, 0, 0)">128x28x28</text>
<line x1="337.0" y1="236.26794919243113" x2="465.0" y2="236.26794919243113" stroke-width="1" stroke-dasharray="None" stroke="rgb(255, 0, 0)"/>
<line x1="337.0" y1="236.26794919243113" x2="337.0" y2="240.26794919243113" stroke-width="1" stroke-dasharray="1" stroke="rgb(255, 0, 0)"/>
<line x1="465.0" y1="236.26794919243113" x2="465.0" y2="240.26794919243113" stroke-width="1" stroke-dasharray="None" stroke="rgb(255, 0, 0)"/>
<line x1="337.0" y1="240.26794919243113" x2="465.0" y2="240.26794919243113" stroke-width="1" stroke-dasharray="1" stroke="rgb(255, 0, 0)"/>
<line x1="337.0" y1="236.26794919243113" x2="335.0" y2="239.7320508075689" stroke-width="1" stroke-dasharray="None" stroke="rgb(255, 0, 0)"/>
<line x1="465.0" y1="236.26794919243113" x2="463.0" y2="239.7320508075689" stroke-width="1" stroke-dasharray="None" stroke="rgb(255, 0, 0)"/>
<line x1="335.0" y1="239.7320508075689" x2="463.0" y2="239.7320508075689" stroke-width="1" stroke-dasharray="None" stroke="rgb(255, 0, 0)"/>
<line x1="335.0" y1="239.7320508075689" x2="335.0" y2="243.7320508075689" stroke-width="1" stroke-dasharray="None" stroke="rgb(255, 0, 0)"/>
<line x1="463.0" y1="239.7320508075689" x2="463.0" y2="243.7320508075689" stroke-width="1" stroke-dasharray="None" stroke="rgb(255, 0, 0)"/>
<line x1="335.0" y1="243.7320508075689" x2="463.0" y2="243.7320508075689" stroke-width="1" stroke-dasharray="None" stroke="rgb(255, 0, 0)"/>
<line x1="337.0" y1="240.26794919243113" x2="335.0" y2="243.7320508075689" stroke-width="1" stroke-dasharray="1" stroke="rgb(255, 0, 0)"/>
<line x1="465.0" y1="240.26794919243113" x2="463.0" y2="243.7320508075689" stroke-width="1" stroke-dasharray="None" stroke="rgb(255, 0, 0)"/>
<line x1="465.0" y1="236.26794919243113" x2="500.25" y2="212.94263164512563" stroke-width="1" stroke-dasharray="1" stroke="rgb(255, 0, 0)"/>
<line x1="465.0" y1="240.26794919243113" x2="500.25" y2="212.94263164512563" stroke-width="1" stroke-dasharray="1" stroke="rgb(255, 0, 0)"/>
<line x1="463.0" y1="239.7320508075689" x2="500.25" y2="212.94263164512563" stroke-width="1" stroke-dasharray="1" stroke="rgb(255, 0, 0)"/>
<line x1="463.0" y1="243.7320508075689" x2="500.25" y2="212.94263164512563" stroke-width="1" stroke-dasharray="1" stroke="rgb(255, 0, 0)"/>
<text x="329.0" y="276.12435565298216" font-family="arial" font-size="12px" text-anchor="left" fill="rgb(0, 0, 0)">deconv2d</text>
<text x="329.0" y="288.12435565298216" font-family="arial" font-size="12px" text-anchor="left" fill="rgb(0, 0, 0)">kernel:(4, 4)</text>
<text x="329.0" y="300.12435565298216" font-family="arial" font-size="12px" text-anchor="left" fill="rgb(0, 0, 0)">stride:(2, 2)</text>
<text x="329.0" y="312.12435565298216" font-family="arial" font-size="12px" text-anchor="left" fill="rgb(0, 0, 0)">pad:(0, 0)</text>
<line x1="507.5" y1="185.88526329025126" x2="571.5" y2="185.88526329025126" stroke-width="1" stroke-dasharray="None" stroke="rgb(0, 0, 0)"/>
<line x1="507.5" y1="185.88526329025126" x2="507.5" y2="243.88526329025126" stroke-width="1" stroke-dasharray="1" stroke="rgb(0, 0, 0)"/>
<line x1="571.5" y1="185.88526329025126" x2="571.5" y2="243.88526329025126" stroke-width="1" stroke-dasharray="None" stroke="rgb(0, 0, 0)"/>
<line x1="507.5" y1="243.88526329025126" x2="571.5" y2="243.88526329025126" stroke-width="1" stroke-dasharray="1" stroke="rgb(0, 0, 0)"/>
<line x1="507.5" y1="185.88526329025126" x2="478.5" y2="236.1147367097487" stroke-width="1" stroke-dasharray="None" stroke="rgb(0, 0, 0)"/>
<line x1="571.5" y1="185.88526329025126" x2="542.5" y2="236.1147367097487" stroke-width="1" stroke-dasharray="None" stroke="rgb(0, 0, 0)"/>
<line x1="478.5" y1="236.1147367097487" x2="542.5" y2="236.1147367097487" stroke-width="1" stroke-dasharray="None" stroke="rgb(0, 0, 0)"/>
<line x1="478.5" y1="236.1147367097487" x2="478.5" y2="294.11473670974874" stroke-width="1" stroke-dasharray="None" stroke="rgb(0, 0, 0)"/>
<line x1="542.5" y1="236.1147367097487" x2="542.5" y2="294.11473670974874" stroke-width="1" stroke-dasharray="None" stroke="rgb(0, 0, 0)"/>
<line x1="478.5" y1="294.11473670974874" x2="542.5" y2="294.11473670974874" stroke-width="1" stroke-dasharray="None" stroke="rgb(0, 0, 0)"/>
<line x1="507.5" y1="243.88526329025126" x2="478.5" y2="294.11473670974874" stroke-width="1" stroke-dasharray="1" stroke="rgb(0, 0, 0)"/>
<line x1="571.5" y1="243.88526329025126" x2="542.5" y2="294.11473670974874" stroke-width="1" stroke-dasharray="None" stroke="rgb(0, 0, 0)"/>
<text x="539.5" y="182.88526329025126" font-family="arial" font-size="10px" text-anchor="middle" fill="rgb(0, 0, 0)">64x58x58</text>
<line x1="494.5" y1="234.40192378864668" x2="558.5" y2="234.40192378864668" stroke-width="1" stroke-dasharray="None" stroke="rgb(255, 0, 0)"/>
<line x1="494.5" y1="234.40192378864668" x2="494.5" y2="240.40192378864668" stroke-width="1" stroke-dasharray="1" stroke="rgb(255, 0, 0)"/>
<line x1="558.5" y1="234.40192378864668" x2="558.5" y2="240.40192378864668" stroke-width="1" stroke-dasharray="None" stroke="rgb(255, 0, 0)"/>
<line x1="494.5" y1="240.40192378864668" x2="558.5" y2="240.40192378864668" stroke-width="1" stroke-dasharray="1" stroke="rgb(255, 0, 0)"/>
<line x1="494.5" y1="234.40192378864668" x2="491.5" y2="239.59807621135332" stroke-width="1" stroke-dasharray="None" stroke="rgb(255, 0, 0)"/>
<line x1="558.5" y1="234.40192378864668" x2="555.5" y2="239.59807621135332" stroke-width="1" stroke-dasharray="None" stroke="rgb(255, 0, 0)"/>
<line x1="491.5" y1="239.59807621135332" x2="555.5" y2="239.59807621135332" stroke-width="1" stroke-dasharray="None" stroke="rgb(255, 0, 0)"/>
<line x1="491.5" y1="239.59807621135332" x2="491.5" y2="245.59807621135332" stroke-width="1" stroke-dasharray="None" stroke="rgb(255, 0, 0)"/>
<line x1="555.5" y1="239.59807621135332" x2="555.5" y2="245.59807621135332" stroke-width="1" stroke-dasharray="None" stroke="rgb(255, 0, 0)"/>
<line x1="491.5" y1="245.59807621135332" x2="555.5" y2="245.59807621135332" stroke-width="1" stroke-dasharray="None" stroke="rgb(255, 0, 0)"/>
<line x1="494.5" y1="240.40192378864668" x2="491.5" y2="245.59807621135332" stroke-width="1" stroke-dasharray="1" stroke="rgb(255, 0, 0)"/>
<line x1="558.5" y1="240.40192378864668" x2="555.5" y2="245.59807621135332" stroke-width="1" stroke-dasharray="None" stroke="rgb(255, 0, 0)"/>
<line x1="558.5" y1="234.40192378864668" x2="632.0" y2="184.01923788646684" stroke-width="1" stroke-dasharray="1" stroke="rgb(255, 0, 0)"/>
<line x1="558.5" y1="240.40192378864668" x2="632.0" y2="184.01923788646684" stroke-width="1" stroke-dasharray="1" stroke="rgb(255, 0, 0)"/>
<line x1="555.5" y1="239.59807621135332" x2="632.0" y2="184.01923788646684" stroke-width="1" stroke-dasharray="1" stroke="rgb(255, 0, 0)"/>
<line x1="555.5" y1="245.59807621135332" x2="632.0" y2="184.01923788646684" stroke-width="1" stroke-dasharray="1" stroke="rgb(255, 0, 0)"/>
<text x="478.5" y="304.11473670974874" font-family="arial" font-size="12px" text-anchor="left" fill="rgb(0, 0, 0)">deconv2d</text>
<text x="478.5" y="316.11473670974874" font-family="arial" font-size="12px" text-anchor="left" fill="rgb(0, 0, 0)">kernel:(6, 6)</text>
<text x="478.5" y="328.11473670974874" font-family="arial" font-size="12px" text-anchor="left" fill="rgb(0, 0, 0)">stride:(2, 2)</text>
<text x="478.5" y="340.11473670974874" font-family="arial" font-size="12px" text-anchor="left" fill="rgb(0, 0, 0)">pad:(0, 0)</text>
<line x1="647.0" y1="128.03847577293368" x2="650.0" y2="128.03847577293368" stroke-width="1" stroke-dasharray="None" stroke="rgb(0, 0, 0)"/>
<line x1="647.0" y1="128.03847577293368" x2="647.0" y2="248.03847577293368" stroke-width="1" stroke-dasharray="1" stroke="rgb(0, 0, 0)"/>
<line x1="650.0" y1="128.03847577293368" x2="650.0" y2="248.03847577293368" stroke-width="1" stroke-dasharray="None" stroke="rgb(0, 0, 0)"/>
<line x1="647.0" y1="248.03847577293368" x2="650.0" y2="248.03847577293368" stroke-width="1" stroke-dasharray="1" stroke="rgb(0, 0, 0)"/>
<line x1="647.0" y1="128.03847577293368" x2="587.0" y2="231.96152422706632" stroke-width="1" stroke-dasharray="None" stroke="rgb(0, 0, 0)"/>
<line x1="650.0" y1="128.03847577293368" x2="590.0" y2="231.96152422706632" stroke-width="1" stroke-dasharray="None" stroke="rgb(0, 0, 0)"/>
<line x1="587.0" y1="231.96152422706632" x2="590.0" y2="231.96152422706632" stroke-width="1" stroke-dasharray="None" stroke="rgb(0, 0, 0)"/>
<line x1="587.0" y1="231.96152422706632" x2="587.0" y2="351.9615242270663" stroke-width="1" stroke-dasharray="None" stroke="rgb(0, 0, 0)"/>
<line x1="590.0" y1="231.96152422706632" x2="590.0" y2="351.9615242270663" stroke-width="1" stroke-dasharray="None" stroke="rgb(0, 0, 0)"/>
<line x1="587.0" y1="351.9615242270663" x2="590.0" y2="351.9615242270663" stroke-width="1" stroke-dasharray="None" stroke="rgb(0, 0, 0)"/>
<line x1="647.0" y1="248.03847577293368" x2="587.0" y2="351.9615242270663" stroke-width="1" stroke-dasharray="1" stroke="rgb(0, 0, 0)"/>
<line x1="650.0" y1="248.03847577293368" x2="590.0" y2="351.9615242270663" stroke-width="1" stroke-dasharray="None" stroke="rgb(0, 0, 0)"/>
<text x="648.5" y="125.03847577293368" font-family="arial" font-size="10px" text-anchor="middle" fill="rgb(0, 0, 0)">3x120x120</text>
</svg>